<?xml version="1.0" standalone="no"?>
<!DOCTYPE svg PUBLIC "-//W3C//DTD SVG 20010904//EN"
 "http://www.w3.org/TR/2001/REC-SVG-20010904/DTD/svg10.dtd">
<svg version="1.0" xmlns="http://www.w3.org/2000/svg"
 width="1307.000000pt" height="728.000000pt" viewBox="0 0 1307.000000 728.000000"
 preserveAspectRatio="xMidYMid meet">

<g transform="translate(0.000000,728.000000) scale(0.100000,-0.100000)"
fill="#000000" stroke="none">
<path d="M3610 5895 l0 -1385 380 0 380 0 0 530 0 530 280 0 280 0 0 335 0
335 -280 0 -280 0 0 520 0 520 -380 0 -380 0 0 -1385z"/>
<path d="M8500 5895 l0 -1385 380 0 380 0 0 1385 0 1385 -380 0 -380 0 0
-1385z"/>
<path d="M10520 5590 l0 -370 1275 0 1275 0 0 370 0 370 -1275 0 -1275 0 0
-370z"/>
<path d="M1020 5480 l0 -310 -400 0 -400 0 0 -330 0 -330 400 0 400 0 0 -126
0 -126 -483 -586 c-266 -323 -496 -601 -511 -619 l-27 -32 301 -233 c165 -128
304 -234 308 -235 4 -1 184 223 401 498 216 275 397 497 401 492 4 -4 181
-229 395 -500 257 -326 392 -490 400 -485 23 14 574 457 575 462 0 3 -225 284
-500 624 l-501 619 3 121 3 121 403 3 402 2 0 330 0 330 -405 0 -405 0 0 310
0 310 -380 0 -380 0 0 -310z"/>
<path d="M5420 4015 l0 -1385 1100 0 1100 0 -2 1383 -3 1382 -377 3 -378 2 0
-355 0 -355 -340 0 -340 0 0 355 0 355 -380 0 -380 0 0 -1385z m1440 -355 l0
-370 -340 0 -340 0 0 370 0 370 340 0 340 0 0 -370z"/>
<path d="M10520 4300 l0 -370 1275 0 1275 0 0 370 0 370 -1275 0 -1275 0 0
-370z"/>
<path d="M10520 3000 l0 -370 1273 2 1272 3 3 368 2 367 -1275 0 -1275 0 0
-370z"/>
<path d="M3850 2539 c-646 -80 -1123 -617 -1123 -1264 0 -616 429 -1131 1041
-1252 192 -37 462 -16 654 53 363 131 657 430 778 792 51 154 63 232 63 407 0
174 -12 253 -63 407 -120 361 -416 662 -778 792 -162 58 -407 86 -572 65z
m262 -750 c182 -39 356 -209 397 -389 15 -65 13 -196 -4 -259 -48 -180 -198
-328 -382 -376 -325 -85 -653 172 -653 510 0 234 164 448 391 509 66 18 180
20 251 5z"/>
</g>
</svg>
